<?xml version="1.0" encoding="utf-8"?>
<svg viewBox="0 0 141.83799743652344 30" width="141.83799743652344" height="30" xmlns="http://www.w3.org/2000/svg">
  <path d="M 10.301 8.733 C 4.332 8.733 0 13.195 0 19.339 C 0 25.483 4.387 29.989 10.441 29.989 C 14.86 29.989 18.524 27.712 20.239 23.898 L 20.418 23.501 L 14.903 23.355 L 14.815 23.489 C 13.924 24.844 12.332 25.621 10.443 25.621 C 7.754 25.621 5.773 23.896 5.272 21.114 L 5.246 20.977 L 20.656 20.977 L 20.656 20.643 C 20.656 16.814 19.573 13.682 17.522 11.594 C 15.715 9.738 13.154 8.733 10.313 8.733 M 5.272 17.221 L 5.309 17.075 C 5.963 14.584 7.849 13.097 10.355 13.097 C 12.705 13.093 14.719 14.773 15.137 17.086 L 15.16 17.223 Z M 47.738 8.733 C 45.185 8.733 42.919 9.814 41.03 11.944 L 40.924 12.065 L 40.842 11.926 C 39.645 9.838 37.499 8.735 34.636 8.735 C 32.53 8.744 30.506 9.556 28.979 11.007 L 28.78 11.192 L 28.78 10.921 L 28.78 9.259 L 23.977 9.259 L 23.977 29.471 L 28.865 29.471 L 28.865 15.879 L 28.895 15.847 C 30.473 14.058 32.049 13.188 33.713 13.188 C 35.842 13.188 37.165 14.594 37.165 16.858 L 37.165 29.466 L 42.053 29.466 L 42.053 15.879 L 42.083 15.847 C 43.661 14.058 45.237 13.188 46.901 13.188 C 49.031 13.188 50.353 14.594 50.353 16.858 L 50.353 29.466 L 55.253 29.466 L 55.253 16.381 C 55.253 11.663 52.373 8.724 47.738 8.724 M 70.411 8.733 C 68.075 8.733 65.647 9.721 64.227 11.253 L 64.021 11.485 L 64.021 11.183 C 64.035 10.158 64.035 9.056 64.035 7.99 L 64.035 0 L 59.153 0 L 59.153 29.466 L 64.042 29.466 L 64.042 27.297 L 64.243 27.529 C 65.635 29.053 67.956 30 70.325 30 C 76.243 30 80.534 25.522 80.534 19.35 C 80.534 13.179 76.273 8.745 70.406 8.745 M 69.71 25.682 C 66.346 25.682 63.91 23.021 63.91 19.358 C 63.91 15.694 66.35 13.074 69.71 13.074 C 73.07 13.074 75.511 15.717 75.511 19.358 C 75.511 22.998 73.07 25.682 69.71 25.682 M 83.348 0 L 88.237 0 L 88.237 29.466 L 83.348 29.466 Z M 94.288 29.466 L 99.179 29.466 L 99.179 9.255 L 91.33 9.255 L 91.33 13.404 L 94.288 13.404 L 94.288 29.466 M 117.896 22.898 C 116.909 24.654 115.223 25.621 113.141 25.621 C 109.775 25.621 107.425 23.056 107.425 19.383 C 107.425 15.71 109.829 13.099 113.141 13.099 C 115.23 13.099 116.909 14.067 117.896 15.823 L 118.033 16.056 L 122.288 13.901 L 122.149 13.64 C 120.55 10.666 117.017 8.743 113.144 8.743 C 107.049 8.743 102.45 13.32 102.45 19.392 C 102.45 25.464 107.047 29.998 113.144 29.998 C 117.017 29.998 120.55 28.074 122.149 25.099 L 122.288 24.84 L 118.033 22.663 Z M 133.417 8.733 C 130.332 8.733 127.315 9.752 125.351 11.459 L 125.162 11.624 L 127.515 15.337 L 127.768 15.137 C 128.928 14.209 130.805 13.111 133.105 13.111 C 134.525 13.111 136.905 13.487 136.905 16 L 136.905 16.304 C 136.905 16.861 136.717 17.232 135.803 17.232 L 131.58 17.232 C 126.956 17.232 124.195 19.587 124.195 23.529 C 124.195 27.471 127.093 30 131.58 30 C 133.615 30 135.524 29.327 136.708 28.197 L 136.905 28.01 L 136.905 29.478 L 141.838 29.478 L 141.838 16.074 C 141.838 11.615 138.529 8.733 133.409 8.733 M 136.905 21.993 C 136.905 22.935 136.587 26.011 132.497 26.011 C 130.142 26.011 129.304 24.596 129.304 23.385 C 129.304 21.838 130.409 21.021 132.497 21.021 L 135.107 21.021 C 135.663 21.038 136.219 20.974 136.757 20.83 L 136.907 20.784 Z M 93.802 0 L 99.176 0 L 99.176 5.374 L 93.802 5.374 Z" style="fill: rgb(255, 255, 255);"/>
</svg>